<mxfile host="app.diagrams.net" modified="2022-03-01T06:15:25.792Z" agent="5.0 (Macintosh; Intel Mac OS X 10_15_7) AppleWebKit/537.36 (KHTML, like Gecko) Chrome/92.0.4515.159 Safari/537.36" etag="U7xr51-omDkfAmIHip7c" version="16.2.4" type="github">
  <diagram name="Page-1" id="13e1069c-82ec-6db2-03f1-153e76fe0fe0">
    <mxGraphModel dx="1426" dy="769" grid="1" gridSize="10" guides="1" tooltips="1" connect="1" arrows="1" fold="1" page="1" pageScale="1" pageWidth="1100" pageHeight="850" background="none" math="0" shadow="0">
      <root>
        <mxCell id="0" />
        <mxCell id="1" parent="0" />
        <mxCell id="xff1_yttpSl-KTZtrj1X-29" value="&lt;b&gt;使用appId和appSecret&lt;/b&gt;" style="shape=umlFrame;whiteSpace=wrap;html=1;width=80;height=30;" vertex="1" parent="1">
          <mxGeometry x="39" y="440" width="961" height="190" as="geometry" />
        </mxCell>
        <mxCell id="xff1_yttpSl-KTZtrj1X-27" value="&lt;b&gt;获取appId和appSecret&lt;/b&gt;" style="shape=umlFrame;whiteSpace=wrap;html=1;width=80;height=30;" vertex="1" parent="1">
          <mxGeometry x="39" y="140" width="961" height="260" as="geometry" />
        </mxCell>
        <mxCell id="7baba1c4bc27f4b0-3" value="&lt;font face=&quot;Helvetica&quot;&gt;&lt;span&gt;Elemental&lt;/span&gt;&lt;br&gt;&lt;span&gt;后台管理系统&lt;/span&gt;&lt;/font&gt;" style="shape=umlLifeline;perimeter=lifelinePerimeter;whiteSpace=wrap;html=1;container=1;collapsible=0;recursiveResize=0;outlineConnect=0;rounded=1;shadow=0;comic=0;labelBackgroundColor=none;strokeWidth=1;fontFamily=Verdana;fontSize=12;align=center;" parent="1" vertex="1">
          <mxGeometry x="439" y="80" width="100" height="580" as="geometry" />
        </mxCell>
        <mxCell id="7baba1c4bc27f4b0-13" value="" style="html=1;points=[];perimeter=orthogonalPerimeter;rounded=0;shadow=0;comic=0;labelBackgroundColor=none;strokeWidth=1;fontFamily=Verdana;fontSize=12;align=center;" parent="7baba1c4bc27f4b0-3" vertex="1">
          <mxGeometry x="45" y="120" width="10" height="90" as="geometry" />
        </mxCell>
        <mxCell id="xff1_yttpSl-KTZtrj1X-2" value="" style="html=1;points=[];perimeter=orthogonalPerimeter;" vertex="1" parent="7baba1c4bc27f4b0-3">
          <mxGeometry x="50" y="160" width="10" height="40" as="geometry" />
        </mxCell>
        <mxCell id="xff1_yttpSl-KTZtrj1X-3" value="&lt;font style=&quot;font-size: 12px&quot;&gt;3.生成appId和appSecret&lt;/font&gt;" style="edgeStyle=orthogonalEdgeStyle;html=1;align=left;spacingLeft=2;endArrow=block;rounded=0;entryX=1;entryY=0;" edge="1" target="xff1_yttpSl-KTZtrj1X-2" parent="7baba1c4bc27f4b0-3">
          <mxGeometry relative="1" as="geometry">
            <mxPoint x="55" y="140" as="sourcePoint" />
            <Array as="points">
              <mxPoint x="85" y="140" />
            </Array>
          </mxGeometry>
        </mxCell>
        <mxCell id="xff1_yttpSl-KTZtrj1X-11" value="&lt;font style=&quot;font-size: 12px&quot;&gt;4. 返回&lt;br&gt;appId和appSecret&lt;/font&gt;" style="html=1;verticalAlign=bottom;endArrow=open;dashed=1;endSize=8;rounded=0;entryX=1.2;entryY=0.769;entryDx=0;entryDy=0;entryPerimeter=0;" edge="1" parent="7baba1c4bc27f4b0-3" target="xff1_yttpSl-KTZtrj1X-10">
          <mxGeometry relative="1" as="geometry">
            <mxPoint x="45" y="200" as="sourcePoint" />
            <mxPoint x="-35" y="200" as="targetPoint" />
          </mxGeometry>
        </mxCell>
        <mxCell id="7baba1c4bc27f4b0-4" value="&lt;span&gt;&lt;font face=&quot;Helvetica&quot;&gt;外部系统&lt;/font&gt;&lt;/span&gt;" style="shape=umlLifeline;perimeter=lifelinePerimeter;whiteSpace=wrap;html=1;container=1;collapsible=0;recursiveResize=0;outlineConnect=0;rounded=1;shadow=0;comic=0;labelBackgroundColor=none;strokeWidth=1;fontFamily=Verdana;fontSize=12;align=center;" parent="1" vertex="1">
          <mxGeometry x="619" y="80" width="100" height="580" as="geometry" />
        </mxCell>
        <mxCell id="xff1_yttpSl-KTZtrj1X-19" value="" style="html=1;points=[];perimeter=orthogonalPerimeter;" vertex="1" parent="7baba1c4bc27f4b0-4">
          <mxGeometry x="45" y="265" width="10" height="25" as="geometry" />
        </mxCell>
        <mxCell id="xff1_yttpSl-KTZtrj1X-21" value="&lt;font style=&quot;font-size: 12px&quot;&gt;6. 配置appId和appSecret到外部系统&lt;/font&gt;" style="html=1;verticalAlign=bottom;endArrow=block;rounded=0;exitX=1;exitY=0.333;exitDx=0;exitDy=0;exitPerimeter=0;" edge="1" parent="7baba1c4bc27f4b0-4" source="xff1_yttpSl-KTZtrj1X-15">
          <mxGeometry width="80" relative="1" as="geometry">
            <mxPoint x="-450" y="270" as="sourcePoint" />
            <mxPoint x="45" y="270" as="targetPoint" />
          </mxGeometry>
        </mxCell>
        <mxCell id="7baba1c4bc27f4b0-5" value="&lt;font face=&quot;Helvetica&quot;&gt;&lt;span&gt;Elemental&lt;/span&gt;&lt;br&gt;&lt;span&gt;API Server&lt;/span&gt;&lt;/font&gt;" style="shape=umlLifeline;perimeter=lifelinePerimeter;whiteSpace=wrap;html=1;container=1;collapsible=0;recursiveResize=0;outlineConnect=0;rounded=1;shadow=0;comic=0;labelBackgroundColor=none;strokeWidth=1;fontFamily=Verdana;fontSize=12;align=center;" parent="1" vertex="1">
          <mxGeometry x="829" y="80" width="100" height="580" as="geometry" />
        </mxCell>
        <mxCell id="xff1_yttpSl-KTZtrj1X-22" value="" style="html=1;points=[];perimeter=orthogonalPerimeter;" vertex="1" parent="7baba1c4bc27f4b0-5">
          <mxGeometry x="45" y="462" width="10" height="50" as="geometry" />
        </mxCell>
        <mxCell id="7baba1c4bc27f4b0-22" value="" style="html=1;points=[];perimeter=orthogonalPerimeter;rounded=0;shadow=0;comic=0;labelBackgroundColor=none;strokeWidth=1;fontFamily=Verdana;fontSize=12;align=center;" parent="1" vertex="1">
          <mxGeometry x="664" y="482" width="10" height="110" as="geometry" />
        </mxCell>
        <mxCell id="7baba1c4bc27f4b0-11" value="&lt;font face=&quot;Helvetica&quot;&gt;1.申请&lt;br&gt;appId和appSecret&lt;/font&gt;" style="html=1;verticalAlign=bottom;endArrow=block;entryX=0;entryY=0;labelBackgroundColor=none;fontFamily=Verdana;fontSize=12;edgeStyle=elbowEdgeStyle;elbow=vertical;" parent="1" edge="1">
          <mxGeometry relative="1" as="geometry">
            <mxPoint x="154" y="180" as="sourcePoint" />
            <mxPoint x="324" y="180" as="targetPoint" />
          </mxGeometry>
        </mxCell>
        <mxCell id="7baba1c4bc27f4b0-14" value="&lt;font face=&quot;Helvetica&quot;&gt;2.点击&lt;br&gt;生成按钮&lt;/font&gt;" style="html=1;verticalAlign=bottom;endArrow=block;entryX=0;entryY=0;labelBackgroundColor=none;fontFamily=Verdana;fontSize=12;edgeStyle=elbowEdgeStyle;elbow=vertical;" parent="1" target="7baba1c4bc27f4b0-13" edge="1">
          <mxGeometry relative="1" as="geometry">
            <mxPoint x="334" y="200" as="sourcePoint" />
          </mxGeometry>
        </mxCell>
        <mxCell id="7baba1c4bc27f4b0-40" value="&lt;span style=&quot;font-family: &amp;#34;helvetica&amp;#34; ; text-align: center&quot;&gt;外部系统&lt;br&gt;管理员&lt;/span&gt;" style="shape=note;whiteSpace=wrap;html=1;size=14;verticalAlign=top;align=left;spacingTop=-6;rounded=0;shadow=0;comic=0;labelBackgroundColor=none;strokeWidth=1;fontFamily=Verdana;fontSize=12" parent="1" vertex="1">
          <mxGeometry x="99" y="30" width="100" height="35" as="geometry" />
        </mxCell>
        <mxCell id="7baba1c4bc27f4b0-41" value="&lt;font face=&quot;Helvetica&quot;&gt;&lt;span style=&quot;text-align: center&quot;&gt;Elemental&lt;/span&gt;&lt;br style=&quot;text-align: center&quot;&gt;&lt;span style=&quot;text-align: center&quot;&gt;系统管理员&lt;/span&gt;&lt;/font&gt;" style="shape=note;whiteSpace=wrap;html=1;size=14;verticalAlign=top;align=left;spacingTop=-6;rounded=0;shadow=0;comic=0;labelBackgroundColor=none;strokeWidth=1;fontFamily=Verdana;fontSize=12" parent="1" vertex="1">
          <mxGeometry x="279" y="30" width="100" height="35" as="geometry" />
        </mxCell>
        <mxCell id="xff1_yttpSl-KTZtrj1X-7" value="" style="shape=umlLifeline;participant=umlActor;perimeter=lifelinePerimeter;whiteSpace=wrap;html=1;container=1;collapsible=0;recursiveResize=0;verticalAlign=top;spacingTop=36;outlineConnect=0;" vertex="1" parent="1">
          <mxGeometry x="139" y="80" width="20" height="580" as="geometry" />
        </mxCell>
        <mxCell id="xff1_yttpSl-KTZtrj1X-8" value="" style="html=1;points=[];perimeter=orthogonalPerimeter;" vertex="1" parent="xff1_yttpSl-KTZtrj1X-7">
          <mxGeometry x="5" y="100" width="10" height="140" as="geometry" />
        </mxCell>
        <mxCell id="xff1_yttpSl-KTZtrj1X-15" value="" style="html=1;points=[];perimeter=orthogonalPerimeter;" vertex="1" parent="xff1_yttpSl-KTZtrj1X-7">
          <mxGeometry x="5" y="260" width="10" height="30" as="geometry" />
        </mxCell>
        <mxCell id="xff1_yttpSl-KTZtrj1X-9" value="" style="shape=umlLifeline;participant=umlActor;perimeter=lifelinePerimeter;whiteSpace=wrap;html=1;container=1;collapsible=0;recursiveResize=0;verticalAlign=top;spacingTop=36;outlineConnect=0;" vertex="1" parent="1">
          <mxGeometry x="319" y="80" width="20" height="580" as="geometry" />
        </mxCell>
        <mxCell id="xff1_yttpSl-KTZtrj1X-10" value="" style="html=1;points=[];perimeter=orthogonalPerimeter;" vertex="1" parent="xff1_yttpSl-KTZtrj1X-9">
          <mxGeometry x="5" y="100" width="10" height="130" as="geometry" />
        </mxCell>
        <mxCell id="xff1_yttpSl-KTZtrj1X-12" value="&lt;font style=&quot;font-size: 12px&quot;&gt;5. 返回&lt;br&gt;appId和appSecret&lt;/font&gt;" style="html=1;verticalAlign=bottom;endArrow=open;dashed=1;endSize=8;rounded=0;entryX=0.9;entryY=0.85;entryDx=0;entryDy=0;entryPerimeter=0;exitX=-0.1;exitY=0.908;exitDx=0;exitDy=0;exitPerimeter=0;" edge="1" parent="1" source="xff1_yttpSl-KTZtrj1X-10" target="xff1_yttpSl-KTZtrj1X-8">
          <mxGeometry relative="1" as="geometry">
            <mxPoint x="319" y="299" as="sourcePoint" />
            <mxPoint x="239" y="300" as="targetPoint" />
          </mxGeometry>
        </mxCell>
        <mxCell id="xff1_yttpSl-KTZtrj1X-23" value="" style="html=1;points=[];perimeter=orthogonalPerimeter;" vertex="1" parent="1">
          <mxGeometry x="669" y="502" width="10" height="20" as="geometry" />
        </mxCell>
        <mxCell id="xff1_yttpSl-KTZtrj1X-24" value="&lt;font style=&quot;font-size: 12px&quot;&gt;1. 使用appId和appSecret签名请求&lt;/font&gt;" style="edgeStyle=orthogonalEdgeStyle;html=1;align=left;spacingLeft=2;endArrow=block;rounded=0;entryX=1;entryY=0;" edge="1" target="xff1_yttpSl-KTZtrj1X-23" parent="1">
          <mxGeometry relative="1" as="geometry">
            <mxPoint x="674" y="482" as="sourcePoint" />
            <Array as="points">
              <mxPoint x="704" y="482" />
            </Array>
          </mxGeometry>
        </mxCell>
        <mxCell id="xff1_yttpSl-KTZtrj1X-25" value="&lt;font style=&quot;font-size: 12px&quot;&gt;2. 发送签名请求&lt;/font&gt;" style="html=1;verticalAlign=bottom;endArrow=block;rounded=0;exitX=1.2;exitY=0.582;exitDx=0;exitDy=0;exitPerimeter=0;entryX=-0.1;entryY=0.08;entryDx=0;entryDy=0;entryPerimeter=0;" edge="1" parent="1" source="7baba1c4bc27f4b0-22" target="xff1_yttpSl-KTZtrj1X-22">
          <mxGeometry width="80" relative="1" as="geometry">
            <mxPoint x="674" y="532" as="sourcePoint" />
            <mxPoint x="869" y="546" as="targetPoint" />
          </mxGeometry>
        </mxCell>
        <mxCell id="xff1_yttpSl-KTZtrj1X-26" value="&lt;font style=&quot;font-size: 12px&quot;&gt;3. 返回结果&lt;/font&gt;" style="html=1;verticalAlign=bottom;endArrow=open;dashed=1;endSize=8;rounded=0;exitX=-0.1;exitY=0.88;exitDx=0;exitDy=0;exitPerimeter=0;entryX=1.3;entryY=0.955;entryDx=0;entryDy=0;entryPerimeter=0;" edge="1" parent="1" source="xff1_yttpSl-KTZtrj1X-22" target="7baba1c4bc27f4b0-22">
          <mxGeometry relative="1" as="geometry">
            <mxPoint x="874" y="576" as="sourcePoint" />
            <mxPoint x="679" y="586" as="targetPoint" />
          </mxGeometry>
        </mxCell>
      </root>
    </mxGraphModel>
  </diagram>
</mxfile>
